<svg version="1.1" id="Layer_1" xmlns="http://www.w3.org/2000/svg" xmlns:xlink="http://www.w3.org/1999/xlink" x="0px" y="0px"
	 width="100%" viewBox="0 0 356 310" enable-background="new 0 0 356 310" xml:space="preserve">
<path fill="#FCFDFD" opacity="1.000000" stroke="none" 
	d="
M214.000000,311.000000 
	C142.666672,311.000000 71.833336,311.000000 1.000000,311.000000 
	C1.000000,207.666672 1.000000,104.333336 1.000000,1.000000 
	C119.666664,1.000000 238.333328,1.000000 357.000000,1.000000 
	C357.000000,104.333336 357.000000,207.666672 357.000000,311.000000 
	C309.500000,311.000000 262.000000,311.000000 214.000000,311.000000 
M323.598785,147.745117 
	C323.598785,147.745117 323.498260,147.368820 323.365143,147.426788 
	C323.365143,147.426788 323.474182,147.330963 323.995697,146.884644 
	C330.242676,121.085388 336.653595,95.324158 342.653839,69.467651 
	C344.967010,59.499664 341.041931,52.209881 331.598358,46.622696 
	C330.933990,46.532139 330.269653,46.441578 329.266571,46.321518 
	C329.266571,46.321518 328.982147,46.135254 328.681244,45.568787 
	C327.447937,45.414177 326.214630,45.259567 324.046448,45.087425 
	C297.087860,45.094727 270.129272,45.102024 242.414734,44.976685 
	C241.221573,45.256851 240.028427,45.537018 238.197693,45.911716 
	C237.410248,46.211533 236.622803,46.511345 235.287964,46.954666 
	C234.809555,47.245380 234.331146,47.536095 233.124863,47.930317 
	C231.818268,49.061012 230.511673,50.191708 228.997604,51.692890 
	C228.820847,51.925896 228.594299,52.090309 227.711441,52.314537 
	C227.560562,52.676559 227.409683,53.038582 227.087799,53.890434 
	C226.742783,54.268459 226.397766,54.646481 225.552109,55.215797 
	C225.417007,55.531227 225.281891,55.846653 225.084885,55.983986 
	C225.084885,55.983986 225.169083,56.154007 224.454193,56.150944 
	C223.272980,59.095947 222.091766,62.040951 220.871872,65.634354 
	C220.766968,66.052597 220.662064,66.470840 219.922440,67.156097 
	C219.202225,71.085304 218.482025,75.014503 217.769470,79.689331 
	C217.373703,81.078766 216.977936,82.468201 215.942917,84.133537 
	C215.289352,87.421951 214.635803,90.710358 213.964249,94.652992 
	C213.842621,95.070526 213.720993,95.488052 212.977646,96.123833 
	C212.662689,98.084160 212.347717,100.044487 212.016953,102.657829 
	C211.892426,103.073616 211.767899,103.489410 210.999008,104.108711 
	C210.395126,105.799835 209.791245,107.490952 209.023056,109.076599 
	C209.023056,109.076599 209.206635,109.143120 208.626907,109.298927 
	C208.394318,109.824455 208.161713,110.349983 207.637573,111.424568 
	C206.545456,112.359146 205.453339,113.293724 203.780319,114.244934 
	C203.541214,114.530823 203.302109,114.816719 202.660538,115.730904 
	C198.183472,116.690529 193.722153,118.380470 189.226471,118.477531 
	C173.593170,118.815063 157.945099,118.756653 142.309464,118.473351 
	C138.879654,118.411201 135.477890,116.801300 132.007812,115.954964 
	C132.007812,115.954964 132.081741,115.968498 132.171997,115.227600 
	C132.110748,114.485619 132.049515,113.743637 132.165985,112.685081 
	C132.165985,112.685081 132.124207,112.324455 132.692612,112.131912 
	C133.761719,108.251450 134.974518,104.403709 135.867477,100.483124 
	C137.342178,94.008545 138.610413,87.486954 139.995102,81.005615 
	C139.995102,81.005615 139.986862,80.971123 140.485001,80.475121 
	C141.646851,76.743065 142.977707,73.054024 143.940674,69.271332 
	C147.698059,54.511662 140.893387,45.416019 125.688210,45.196110 
	C110.737152,44.979874 95.779587,45.009480 80.827148,45.158466 
	C69.299606,45.273335 57.980541,53.933842 54.061153,65.150452 
	C54.061153,65.150452 54.132088,65.332001 53.662323,65.852814 
	C52.019802,73.245811 50.377285,80.638817 48.321232,88.628708 
	C48.272858,89.104660 48.224487,89.580612 47.738773,90.659210 
	C34.197300,147.111649 20.645649,203.561661 7.121094,260.018158 
	C3.481689,275.210358 12.240647,286.700165 27.811827,286.930878 
	C39.125053,287.098541 50.444897,286.980804 61.759811,286.835907 
	C78.521500,286.621338 92.745529,276.902313 97.639839,260.924072 
	C101.229126,249.206268 103.181099,236.986954 106.208008,224.478394 
	C106.264359,223.874069 106.320717,223.269745 106.898407,222.124817 
	C110.338684,207.408081 113.830231,192.703064 117.197296,177.969589 
	C118.845192,170.758850 123.256226,167.274612 130.564270,167.274857 
	C140.019302,167.275177 149.474350,167.010010 159.619247,167.039169 
	C160.085449,166.975311 160.551651,166.911453 161.938095,167.026199 
	C176.267365,167.029282 190.602325,167.266464 204.923004,166.917328 
	C210.457520,166.782394 213.805145,168.594513 216.554276,173.408676 
	C224.307358,186.985535 243.156784,189.900070 255.004059,179.587601 
	C263.361542,172.312836 266.062775,162.875336 263.420868,152.453201 
	C260.727783,141.829056 253.254593,135.169785 242.410156,133.588303 
	C231.656693,132.020065 222.268478,135.784851 216.807648,145.361053 
	C213.184052,151.715439 208.366959,152.977264 201.992096,152.930618 
	C189.335876,152.837936 176.677582,153.029221 163.277756,152.906387 
	C162.516815,152.946243 161.755890,152.986099 160.243759,152.742249 
	C149.929199,152.691666 139.610046,152.424362 129.301224,152.643600 
	C115.426125,152.938660 105.367683,161.235825 102.345200,174.182556 
	C96.067505,201.072937 89.724319,227.948074 83.378342,254.822449 
	C80.637383,266.430084 71.856941,273.160431 59.879711,273.147766 
	C50.244999,273.137604 40.610073,273.329407 30.191097,273.229492 
	C29.112127,273.196594 28.033159,273.163696 26.481623,272.609619 
	C21.977449,270.641754 21.313219,267.069824 22.313023,262.754883 
	C23.685467,256.831665 25.011387,250.897720 26.706711,244.346298 
	C26.737007,243.875214 26.767303,243.404114 27.241413,242.344040 
	C28.044802,239.129211 28.883953,235.922836 29.645832,232.698196 
	C35.058693,209.788406 40.455753,186.874893 46.263416,163.448593 
	C46.380833,162.604004 46.498249,161.759399 46.880089,160.309250 
	C46.907997,159.872696 46.935909,159.436127 47.332104,158.411804 
	C47.411018,157.741379 47.489937,157.070953 47.538715,156.298187 
	C47.538715,156.298187 47.639153,156.334152 48.100754,155.846832 
	C51.513092,141.210678 54.925434,126.574539 58.655338,111.320053 
	C58.714401,110.863121 58.773468,110.406181 59.320290,109.407921 
	C60.320179,104.579590 61.320068,99.751259 62.670517,94.327385 
	C62.737553,93.874687 62.804592,93.421989 63.330841,92.437881 
	C63.691544,90.599525 64.052246,88.761162 64.719582,86.312408 
	C64.768494,85.862183 64.817406,85.411957 65.361633,84.425423 
	C66.370728,79.593651 67.379822,74.761879 68.691376,69.313828 
	C68.755997,68.862564 68.820618,68.411308 69.397713,67.526672 
	C72.751793,61.380363 77.932838,58.706383 84.915146,58.870712 
	C93.188721,59.065422 101.471848,58.824619 109.747688,58.962193 
	C115.181839,59.052528 120.610420,59.478477 126.719894,60.110886 
	C127.261406,62.938286 128.664764,65.920517 128.189636,68.565277 
	C126.475319,78.107765 124.128479,87.536621 121.720917,97.364372 
	C121.720917,97.364372 121.615936,97.817650 121.078468,98.361732 
	C119.729729,105.907791 118.380981,113.453857 117.009796,121.735893 
	C118.616631,124.217834 120.223465,126.699776 122.133858,129.717865 
	C122.712944,129.865906 123.292038,130.013947 123.934784,130.005463 
	C123.934784,130.005463 123.836365,130.142853 124.181610,130.775726 
	C126.685280,131.493576 129.184540,132.815720 131.693329,132.834030 
	C152.425201,132.985184 173.162720,133.118912 193.889862,132.758408 
	C201.345947,132.628723 208.625153,130.729568 214.693771,125.047203 
	C214.693771,125.047203 214.964294,124.723907 215.613007,124.641899 
	C221.411743,120.705444 224.767456,115.051292 226.494949,108.451859 
	C229.697159,96.218712 232.997223,83.995750 235.627151,71.634644 
	C236.975342,65.297859 240.119064,61.136990 246.844620,58.771667 
	C271.580292,58.775757 296.315979,58.779846 321.450836,59.220928 
	C322.017914,59.340542 322.584961,59.460155 323.255341,59.773048 
	C323.255341,59.773048 323.473206,59.749348 323.688995,60.203896 
	C324.147827,60.367264 324.606628,60.530636 325.402435,61.168690 
	C325.689087,61.429104 325.975769,61.689522 326.253998,62.607452 
	C326.641144,63.357155 327.028259,64.106857 327.290405,65.660568 
	C327.301208,66.472885 327.312012,67.285202 326.889221,68.475670 
	C326.869904,69.022079 326.850586,69.568497 326.472992,70.695671 
	C326.416107,71.141800 326.359192,71.587929 325.816071,72.586838 
	C324.792267,77.416267 323.768463,82.245697 322.364410,87.667900 
	C322.315521,88.130089 322.266632,88.592285 321.732880,89.591278 
	C320.949921,92.748192 320.166962,95.905106 319.011078,99.857407 
	C318.717682,102.155457 318.424286,104.453506 317.660583,107.234840 
	C315.594269,115.796783 313.492981,124.350471 311.468811,132.922363 
	C306.962006,152.007889 302.493713,171.102493 297.727112,190.298553 
	C297.727112,190.298553 297.647034,190.586960 297.647034,190.586960 
	C297.647034,190.586960 297.880463,190.774673 297.498688,191.536316 
	C297.369385,192.373657 297.240082,193.211014 296.704193,194.454117 
	C296.688385,195.001022 296.672577,195.547913 296.335785,196.702744 
	C296.288544,197.155731 296.241272,197.608704 295.746063,198.428757 
	C295.711456,198.971649 295.676819,199.514526 295.275238,200.754364 
	C294.974518,202.286392 294.673798,203.818420 293.955475,205.784958 
	C293.874786,206.544540 293.794098,207.304123 293.352570,208.773499 
	C293.260345,209.293808 293.168121,209.814117 292.798279,210.346100 
	C292.597687,210.628036 292.635712,210.857269 292.683167,211.587006 
	C292.622284,212.179657 292.561432,212.772293 292.022949,213.831329 
	C291.842468,214.896210 291.661957,215.961075 291.161072,217.642731 
	C291.135010,218.101807 291.108917,218.560867 290.620117,219.591858 
	C289.425507,224.727844 288.230896,229.863831 286.546051,235.551682 
	C285.233246,240.709625 284.032196,245.899124 282.585846,251.019333 
	C278.845917,264.258972 267.636108,272.811249 253.887802,273.105133 
	C250.905899,273.168884 247.927277,273.385834 244.043030,273.297852 
	C237.036438,273.404968 230.029861,273.512115 222.198303,273.318665 
	C220.468460,273.392975 218.738632,273.467255 216.201050,273.274445 
	C214.798386,273.349670 213.395737,273.424927 211.162537,273.250336 
	C209.435883,273.338257 207.709229,273.426178 205.099106,273.267731 
	C201.711411,273.249115 198.323700,273.230499 194.583282,272.748230 
	C194.045273,272.564026 193.507263,272.379822 192.602432,271.759979 
	C192.308365,271.520599 192.014297,271.281219 191.723450,270.453186 
	C191.156189,269.953979 190.588928,269.454742 190.078568,268.103058 
	C191.949387,260.685181 193.856049,253.276154 195.683487,245.847610 
	C199.335663,231.001587 202.961136,216.148926 206.563065,201.290634 
	C208.052338,195.147247 205.634369,189.075699 200.618042,186.114716 
	C196.654770,183.775269 194.142578,184.819107 193.085815,189.260635 
	C189.739197,203.326324 186.392960,217.392105 183.058090,231.460587 
	C180.260345,243.263107 177.203278,255.013245 174.779160,266.892303 
	C172.919037,276.007507 177.373413,283.999969 186.277359,285.374969 
	C196.003540,286.876953 206.056458,286.263184 216.753616,286.814087 
	C217.834320,286.731903 218.915039,286.649719 220.731537,286.800781 
	C221.489197,286.718201 222.246872,286.635620 223.837860,286.792969 
	C225.563416,286.701904 227.288971,286.610840 229.916351,286.770111 
	C237.591446,286.617523 245.266556,286.464935 253.751007,286.632507 
	C259.852051,285.291687 265.953094,283.950897 272.837036,282.494354 
	C277.555054,279.338745 282.273071,276.183136 287.612183,272.800079 
	C288.517914,271.548950 289.423615,270.297791 290.732666,268.734436 
	C290.943207,268.288025 291.153748,267.841583 291.366028,267.291321 
	C291.366028,267.291321 291.445160,267.358612 292.009918,267.114532 
	C292.587402,266.058716 293.164917,265.002899 294.161285,263.483276 
	C294.566040,262.536407 294.970795,261.589539 295.958527,260.218658 
	C296.972351,256.480591 297.986176,252.742523 299.267883,248.458893 
	C299.319489,247.859528 299.371094,247.260162 299.951599,246.138916 
	C301.185944,240.723709 302.420288,235.308502 303.840393,229.678680 
	C303.840393,229.678680 303.790222,229.399323 304.147156,229.306717 
	C304.199036,229.194870 304.313171,229.067841 304.290344,228.974228 
	C304.236877,228.754913 304.117798,228.551620 304.413971,227.582626 
	C304.502502,227.025589 304.591034,226.468552 305.165314,225.357040 
	C307.971100,213.218323 310.776917,201.079590 313.907776,188.214066 
	C314.352386,186.146561 314.796967,184.079056 315.369781,181.873795 
	C315.369781,181.873795 315.359161,181.685501 315.840546,181.106964 
	C318.065948,171.388565 320.291351,161.670151 322.806030,151.254562 
	C322.818817,151.003265 322.831573,150.751984 323.058868,150.616989 
	C323.058868,150.616989 323.178162,150.320969 323.178162,150.320969 
	C323.178162,150.320969 322.896362,150.216003 323.122223,149.617355 
	C323.126434,149.404129 323.130646,149.190903 323.405823,148.569199 
	C323.405823,148.569199 323.397705,148.078705 323.598785,147.745117 
z"/>
<path fill="#2770AB" opacity="1.000000" stroke="none" 
	d="
M26.954189,273.130829 
	C28.033159,273.163696 29.112127,273.196594 30.671753,273.632446 
	C32.102421,274.349182 33.052437,274.662964 34.001282,275.387329 
	C33.608650,283.233429 33.848675,283.454254 40.422279,283.002960 
	C46.304253,282.599091 52.208084,282.465118 58.075207,281.920471 
	C60.092285,281.733215 62.027622,280.665497 64.343338,280.034668 
	C65.790192,281.379364 66.894028,282.689392 67.575241,284.012299 
	C53.585365,284.117737 40.016743,284.341766 26.451860,284.202209 
	C23.399899,284.170807 20.267441,283.134094 17.336954,282.095032 
	C12.341019,280.323669 9.226858,276.497559 9.123756,271.272949 
	C9.040046,267.030914 10.159016,262.750427 10.881810,258.510345 
	C12.308425,250.141525 13.544184,241.725616 15.377235,233.443924 
	C18.377417,219.889160 21.799816,206.428009 25.029303,192.923828 
	C28.822538,177.062302 32.547962,161.184326 36.398407,145.336731 
	C40.494522,128.478012 44.745235,111.656715 48.785641,94.784882 
	C49.131584,93.340279 48.404652,91.638741 48.176117,90.056564 
	C48.224487,89.580612 48.272858,89.104660 48.835056,88.222198 
	C50.914219,82.724976 52.675037,77.682747 53.954937,72.521255 
	C54.518177,70.249863 54.103024,67.735855 54.132088,65.332001 
	C54.132088,65.332001 54.061153,65.150452 54.481022,65.047165 
	C56.668694,62.810055 58.663857,60.823669 60.161293,58.514511 
	C64.503792,51.818058 71.110596,47.374233 78.433876,47.308887 
	C97.609459,47.137772 116.913078,45.147751 135.991089,49.415070 
	C136.143005,54.054127 136.143005,54.054127 139.371399,53.045998 
	C140.160187,54.410172 140.591873,55.703102 140.667633,57.036812 
	C137.118683,59.998837 137.394623,60.606895 142.977112,63.319656 
	C142.637482,64.427711 142.319962,65.215958 141.704758,66.024185 
	C140.938385,66.362923 140.469681,66.681671 139.725861,66.804733 
	C138.120163,66.485336 136.656311,65.954750 135.491318,66.336426 
	C133.877090,66.865273 132.487564,68.079910 131.000885,68.584061 
	C131.001038,66.777832 131.002167,65.388458 131.394028,63.991966 
	C135.879623,63.216812 135.422745,60.912682 134.102234,58.207638 
	C133.575760,58.207638 133.354492,58.138027 133.258377,58.218281 
	C132.163437,59.132404 131.087616,60.069405 129.963806,60.643311 
	C128.603897,59.540192 127.286873,58.794048 125.984848,58.035889 
	C125.999855,58.023876 125.964233,58.027798 125.798111,57.768093 
	C125.046959,57.371227 124.461937,57.234066 123.416061,57.095364 
	C108.992630,57.102375 95.030037,57.110931 80.899521,56.865303 
	C79.816811,57.085976 78.902039,57.560833 77.674927,58.184189 
	C73.479935,60.611187 68.035324,61.514305 68.885239,67.960045 
	C68.820618,68.411308 68.755997,68.862564 68.237473,69.768288 
	C66.811150,75.135742 65.838737,80.048737 64.866318,84.961731 
	C64.817406,85.411957 64.768494,85.862183 64.277802,86.742889 
	C63.514557,89.105347 63.193096,91.037315 62.871632,92.969292 
	C62.804592,93.421989 62.737553,93.874687 62.204987,94.768280 
	C60.770485,100.122536 59.801510,105.035889 58.832535,109.949249 
	C58.773468,110.406181 58.714401,110.863121 58.202942,111.777893 
	C54.501827,124.848732 51.202328,137.449097 48.056801,150.087784 
	C47.560703,152.081085 47.760899,154.247681 47.639153,156.334152 
	C47.639153,156.334152 47.538715,156.298187 47.214432,156.332642 
	C46.914707,157.244583 46.939262,158.122086 46.963821,158.999573 
	C46.935909,159.436127 46.907997,159.872696 46.578362,160.605957 
	C46.276634,160.902664 45.946701,160.982315 45.744057,161.103836 
	C45.284554,161.435608 45.133759,161.705200 45.074944,162.284088 
	C45.052788,162.700729 45.044708,162.867432 44.758011,163.269958 
	C41.210602,176.217194 37.902195,188.918594 34.685627,201.643204 
	C32.143478,211.699844 29.529947,221.745087 27.334536,231.879105 
	C26.564058,235.435608 26.943333,239.241180 26.797600,242.933029 
	C26.767303,243.404114 26.737007,243.875214 26.233732,244.787323 
	C23.913742,250.779953 21.746014,256.253387 20.365303,261.918610 
	C19.745617,264.461243 20.204502,267.561279 21.088692,270.088348 
	C21.882286,272.356476 23.571672,274.904633 26.954189,273.130829 
z"/>
<path fill="#7E7E7E" opacity="1.000000" stroke="none" 
	d="
M164.020142,153.103149 
	C176.677582,153.029221 189.335876,152.837936 201.992096,152.930618 
	C208.366959,152.977264 213.184052,151.715439 216.807648,145.361053 
	C222.268478,135.784851 231.656693,132.020065 242.410156,133.588303 
	C253.254593,135.169785 260.727783,141.829056 263.420868,152.453201 
	C266.062775,162.875336 263.361542,172.312836 255.004059,179.587601 
	C243.156784,189.900070 224.307358,186.985535 216.554276,173.408676 
	C213.805145,168.594513 210.457520,166.782394 204.923004,166.917328 
	C190.602325,167.266464 176.267365,167.029282 161.476822,166.551300 
	C161.575790,164.022949 162.201324,161.984497 162.678680,159.911942 
	C163.197601,157.658875 163.578857,155.374115 164.020142,153.103149 
z"/>
<path fill="#2970AB" opacity="1.000000" stroke="none" 
	d="
M295.375519,260.642670 
	C294.970795,261.589539 294.566040,262.536407 293.612671,263.768799 
	C292.524414,265.155762 291.984802,266.257202 291.445160,267.358612 
	C291.445160,267.358612 291.366028,267.291321 290.955902,267.215332 
	C289.704926,267.082947 288.864105,267.026581 288.005188,266.678558 
	C287.689087,265.915985 287.391052,265.445129 287.085876,264.613190 
	C287.383514,263.165863 287.688354,262.079620 288.327576,260.946960 
	C288.440491,259.939178 288.219025,258.977814 287.996460,257.567444 
	C288.184998,254.665695 288.252106,252.196136 288.587036,249.763412 
	C289.632935,242.166504 290.780060,234.583542 292.129578,226.861389 
	C292.225433,226.155273 292.079620,225.582962 291.947540,224.590729 
	C291.983948,222.770447 292.006622,221.370071 292.284271,219.757294 
	C292.640625,218.674957 292.742004,217.805038 292.868469,216.484711 
	C292.762573,215.144516 292.631592,214.254730 292.500610,213.364944 
	C292.561432,212.772293 292.622284,212.179657 292.876068,211.144806 
	C293.068970,210.702621 293.075897,210.334427 293.075928,210.334427 
	C293.168121,209.814117 293.260345,209.293808 293.811920,208.258728 
	C294.305206,206.946136 294.339142,206.148285 294.373077,205.350449 
	C294.673798,203.818420 294.974518,202.286392 295.686279,200.337952 
	C296.129578,199.301605 296.161804,198.681641 296.194031,198.061691 
	C296.241272,197.608704 296.288544,197.155731 296.723511,196.315948 
	C297.111084,195.302231 297.110931,194.675293 297.110779,194.048355 
	C297.240082,193.211014 297.369385,192.373657 297.752502,191.071869 
	C298.006287,190.607422 298.009735,190.193405 298.009735,190.193405 
	C302.493713,171.102493 306.962006,152.007889 311.468811,132.922363 
	C313.492981,124.350471 315.594269,115.796783 318.279358,106.968170 
	C319.592285,105.466278 320.286469,104.231064 321.351746,102.992874 
	C330.300018,100.105667 329.400269,93.224556 327.891113,85.784798 
	C332.881805,86.898293 332.912537,90.062721 333.073730,93.438644 
	C333.081665,94.132088 333.089874,94.528969 332.805969,95.137741 
	C332.377411,97.261230 332.240997,99.172829 332.092041,101.506638 
	C330.123260,111.268150 328.064911,120.587646 326.248444,129.954056 
	C325.132324,135.709244 324.386353,141.536224 323.474182,147.330963 
	C323.474182,147.330963 323.365143,147.426788 323.149475,147.358307 
	C322.677551,147.541290 322.421295,147.792755 322.249939,148.267487 
	C322.529175,148.771759 322.795868,148.934067 323.134857,148.977676 
	C323.130646,149.190903 323.126434,149.404129 322.980469,149.984329 
	C322.838684,150.351303 322.844360,150.500687 322.844360,150.500687 
	C322.831573,150.751984 322.818817,151.003265 322.345581,151.721497 
	C319.592224,161.134308 317.299316,170.080200 314.756653,179.221863 
	C314.751770,180.282272 314.996674,181.146912 315.241577,182.011551 
	C314.796967,184.079056 314.352386,186.146561 313.419373,188.691727 
	C312.299866,190.829910 311.510254,192.449158 311.065094,194.158127 
	C309.175323,201.412628 307.236633,208.660629 305.632324,215.980362 
	C304.925476,219.205429 304.973999,222.596054 304.679565,225.911514 
	C304.591034,226.468552 304.502502,227.025589 304.165649,228.085999 
	C303.847504,228.854950 303.805145,229.124939 303.790222,229.399323 
	C303.790222,229.399323 303.840393,229.678680 303.418701,229.910553 
	C301.805603,235.648560 300.614166,241.154678 299.422729,246.660797 
	C299.371094,247.260162 299.319489,247.859528 298.808716,248.898987 
	C297.358215,253.106949 296.366852,256.874817 295.375519,260.642670 
z"/>
<path fill="#7D7D7D" opacity="1.000000" stroke="none" 
	d="
M194.936005,273.211884 
	C198.323700,273.230499 201.711411,273.249115 205.533325,273.736084 
	C206.143570,276.237030 206.319611,278.269562 206.612534,281.651611 
	C204.777069,281.218719 201.900665,281.324158 200.171890,279.967377 
	C196.704453,277.246033 195.635834,277.187927 193.337021,281.621674 
	C193.826981,281.989380 194.302490,282.640076 194.858429,282.718170 
	C200.649948,283.531616 206.463791,284.189850 212.248016,285.048737 
	C213.534668,285.239807 214.729721,286.047729 215.966949,286.571625 
	C206.056458,286.263184 196.003540,286.876953 186.277359,285.374969 
	C177.373413,283.999969 172.919037,276.007507 174.779160,266.892303 
	C177.203278,255.013245 180.260345,243.263107 183.058090,231.460587 
	C186.392960,217.392105 189.739197,203.326324 193.085815,189.260635 
	C194.142578,184.819107 196.654770,183.775269 200.618042,186.114716 
	C205.634369,189.075699 208.052338,195.147247 206.563065,201.290634 
	C202.961136,216.148926 199.335663,231.001587 195.683487,245.847610 
	C193.856049,253.276154 191.949387,260.685181 190.047546,268.843201 
	C190.584442,270.069489 191.152344,270.555664 191.720245,271.041840 
	C192.014297,271.281219 192.308365,271.520599 192.818146,272.244629 
	C193.667923,272.890137 194.301956,273.051025 194.936005,273.211884 
z"/>
<path fill="#226EAC" opacity="1.000000" stroke="none" 
	d="
M67.997864,283.999390 
	C66.894028,282.689392 65.790192,281.379364 64.346680,279.683777 
	C63.991619,277.857635 63.976238,276.417023 64.231880,274.707153 
	C75.263626,273.787354 81.280106,266.889648 84.384315,257.713806 
	C87.606018,248.190628 89.546707,238.224976 91.885750,228.414261 
	C96.333748,209.757828 100.478615,191.026276 105.190506,172.437744 
	C106.252792,168.246979 107.791550,163.503357 112.991386,162.332581 
	C113.680161,166.156631 114.356361,169.597595 115.031555,173.429611 
	C114.362206,177.498306 113.642357,181.167542 113.039650,184.855911 
	C112.404549,188.742599 112.047829,192.681396 111.264618,196.535461 
	C110.399178,200.794144 108.984802,204.944397 108.183006,209.212036 
	C107.348686,213.652832 106.960403,218.177460 106.377075,222.665421 
	C106.320717,223.269745 106.264359,223.874069 105.684349,224.805908 
	C102.787613,232.759247 99.717545,240.251663 98.225456,248.046127 
	C96.524490,256.931702 94.868431,264.836517 88.179688,272.242798 
	C82.248634,278.810059 75.658302,281.701599 67.997864,283.999390 
z"/>
<path fill="#256CA8" opacity="1.000000" stroke="none" 
	d="
M333.074005,93.142090 
	C332.912537,90.062721 332.881805,86.898293 327.891113,85.784798 
	C329.400269,93.224556 330.300018,100.105667 321.355835,102.592880 
	C320.984955,101.128792 320.981171,100.061729 320.996155,98.596832 
	C321.408325,96.109222 321.801666,94.019447 322.381897,91.817993 
	C322.790771,91.499413 322.930145,91.246834 322.989807,90.711624 
	C322.992798,90.474670 323.011230,90.001091 323.271301,89.791199 
	C323.680298,88.712738 323.829254,87.844177 323.989685,86.983307 
	C324.001221,86.990990 323.977814,86.989365 324.255493,86.758484 
	C324.676056,85.332352 324.818970,84.137100 324.967682,82.574875 
	C325.307617,80.807434 325.641754,79.406982 326.243866,77.795517 
	C326.659607,76.698418 326.807373,75.812325 326.963318,74.553612 
	C327.017578,73.437126 327.063721,72.693275 327.335999,71.776047 
	C327.701416,71.057259 327.840668,70.511848 327.976837,69.704193 
	C327.756775,68.993813 327.539795,68.545670 327.322815,68.097519 
	C327.312012,67.285202 327.301208,66.472885 327.544525,65.042953 
	C327.286560,63.600197 326.774475,62.775066 326.262421,61.949936 
	C325.975769,61.689522 325.689087,61.429104 325.231445,60.719078 
	C325.060425,60.269463 324.974243,59.853523 324.911377,59.719566 
	C324.605377,59.332886 324.369110,59.345604 323.971069,59.644444 
	C323.802429,59.665127 323.473206,59.749348 323.473206,59.749348 
	C323.473206,59.749348 323.255341,59.773048 323.179993,59.430176 
	C323.041534,58.764820 322.990997,58.440380 322.700989,57.795982 
	C316.744751,57.315063 311.041046,57.034454 305.336273,57.011192 
	C287.887482,56.940025 270.438263,56.967770 252.997345,56.584518 
	C254.325378,53.129082 255.645279,50.046162 257.436005,46.957115 
	C279.194336,46.950371 300.497009,46.463161 321.763763,47.127155 
	C335.041382,47.541714 341.799042,53.009769 340.845947,66.362022 
	C340.251587,74.689232 337.732391,82.889809 335.866058,91.099266 
	C335.673126,91.947929 334.039276,92.469009 333.074005,93.142090 
z"/>
<path fill="#437BA7" opacity="1.000000" stroke="none" 
	d="
M106.637741,222.395111 
	C106.960403,218.177460 107.348686,213.652832 108.183006,209.212036 
	C108.984802,204.944397 110.399178,200.794144 111.264618,196.535461 
	C112.047829,192.681396 112.404549,188.742599 113.039650,184.855911 
	C113.642357,181.167542 114.362206,177.498306 115.385193,173.380096 
	C120.396896,166.441254 126.652527,164.251221 134.586639,164.901718 
	C141.773071,165.490921 149.045898,165.026245 156.256790,165.026245 
	C157.221313,161.631454 158.052170,158.707123 159.038986,155.233871 
	C146.916779,155.233871 135.302597,154.728088 123.777489,155.519592 
	C119.957573,155.781921 114.598015,156.542831 112.978813,161.949493 
	C107.791550,163.503357 106.252792,168.246979 105.190506,172.437744 
	C100.478615,191.026276 96.333748,209.757828 91.885750,228.414261 
	C89.546707,238.224976 87.606018,248.190628 84.384315,257.713806 
	C81.280106,266.889648 75.263626,273.787354 63.767570,274.709106 
	C53.355640,274.979156 43.679047,274.977936 34.002449,274.976715 
	C33.052437,274.662964 32.102421,274.349182 31.063826,273.733521 
	C40.610073,273.329407 50.244999,273.137604 59.879711,273.147766 
	C71.856941,273.160431 80.637383,266.430084 83.378342,254.822449 
	C89.724319,227.948074 96.067505,201.072937 102.345200,174.182556 
	C105.367683,161.235825 115.426125,152.938660 129.301224,152.643600 
	C139.610046,152.424362 149.929199,152.691666 160.629517,153.315399 
	C160.319962,158.212097 159.624680,162.535629 158.929382,166.859161 
	C149.474350,167.010010 140.019302,167.275177 130.564270,167.274857 
	C123.256226,167.274612 118.845192,170.758850 117.197296,177.969589 
	C113.830231,192.703064 110.338684,207.408081 106.637741,222.395111 
z"/>
<path fill="#3876A5" opacity="1.000000" stroke="none" 
	d="
M67.575249,284.012299 
	C75.658302,281.701599 82.248634,278.810059 88.179688,272.242798 
	C94.868431,264.836517 96.524490,256.931702 98.225456,248.046127 
	C99.717545,240.251663 102.787613,232.759247 105.511749,225.062286 
	C103.181099,236.986954 101.229126,249.206268 97.639839,260.924072 
	C92.745529,276.902313 78.521500,286.621338 61.759811,286.835907 
	C50.444897,286.980804 39.125053,287.098541 27.811827,286.930878 
	C12.240647,286.700165 3.481689,275.210358 7.121094,260.018158 
	C20.645649,203.561661 34.197300,147.111649 47.957443,90.357887 
	C48.404652,91.638741 49.131584,93.340279 48.785641,94.784882 
	C44.745235,111.656715 40.494522,128.478012 36.398407,145.336731 
	C32.547962,161.184326 28.822538,177.062302 25.029303,192.923828 
	C21.799816,206.428009 18.377417,219.889160 15.377235,233.443924 
	C13.544184,241.725616 12.308425,250.141525 10.881810,258.510345 
	C10.159016,262.750427 9.040046,267.030914 9.123756,271.272949 
	C9.226858,276.497559 12.341019,280.323669 17.336954,282.095032 
	C20.267441,283.134094 23.399899,284.170807 26.451860,284.202209 
	C40.016743,284.341766 53.585365,284.117737 67.575249,284.012299 
z"/>
<path fill="#2671AE" opacity="1.000000" stroke="none" 
	d="
M131.001831,69.000916 
	C132.487564,68.079910 133.877090,66.865273 135.491318,66.336426 
	C136.656311,65.954750 138.120163,66.485336 139.728119,67.144012 
	C140.342010,68.456123 140.678482,69.233276 141.010773,70.430344 
	C140.666672,74.223885 140.326767,77.597504 139.986862,80.971123 
	C139.986862,80.971123 139.995102,81.005615 139.608978,81.079651 
	C138.818359,81.982124 138.250900,82.770554 138.036133,83.645546 
	C136.742584,88.915733 135.427261,94.184418 134.322601,99.495911 
	C133.439743,103.740883 132.846176,108.046021 132.124207,112.324455 
	C132.124207,112.324455 132.165985,112.685081 131.771088,112.880707 
	C131.611359,114.040398 131.846542,115.004448 132.081741,115.968498 
	C132.081741,115.968498 132.007812,115.954964 132.012604,116.338715 
	C132.012665,117.812943 132.007935,118.903404 131.945847,120.335754 
	C130.474548,120.577141 129.060593,120.476654 126.971039,120.328148 
	C126.971039,123.101006 126.971039,126.578957 126.578758,130.051605 
	C125.403107,130.078476 124.619736,130.110672 123.836365,130.142853 
	C123.836365,130.142853 123.934784,130.005463 123.953163,129.804932 
	C123.979820,129.416306 123.988091,129.228210 123.993469,128.677475 
	C123.296165,127.552170 122.601761,126.789490 121.617813,125.865372 
	C120.539474,124.170639 119.750679,122.637360 118.975029,120.670074 
	C120.063484,114.999886 121.319214,109.791298 122.126595,104.514122 
	C122.456398,102.358467 121.815315,100.054268 121.615936,97.817650 
	C121.615936,97.817650 121.720917,97.364372 122.229614,97.117371 
	C124.160851,92.595894 125.702156,88.356422 126.974762,84.037766 
	C128.440979,79.061981 129.669861,74.016258 131.001831,69.000916 
z"/>
<path fill="#8C8F90" opacity="1.000000" stroke="none" 
	d="
M244.947144,273.532227 
	C247.927277,273.385834 250.905899,273.168884 253.887802,273.105133 
	C267.636108,272.811249 278.845917,264.258972 282.585846,251.019333 
	C284.032196,245.899124 285.233246,240.709625 287.066986,235.545059 
	C286.609650,245.154648 286.185150,254.872696 284.442810,264.348419 
	C283.417755,269.923035 281.487915,275.851990 274.719086,278.088196 
	C273.469208,278.501099 272.924377,281.048096 272.054138,282.610107 
	C265.953094,283.950897 259.852051,285.291687 253.338074,286.162354 
	C251.537109,284.984314 250.196320,283.817749 248.750748,283.668945 
	C246.157089,283.401917 244.813354,282.701660 245.142715,279.766541 
	C245.372208,277.721497 245.032547,275.612610 244.947144,273.532227 
z"/>
<path fill="#4F81AA" opacity="1.000000" stroke="none" 
	d="
M333.073730,93.438652 
	C334.039276,92.469009 335.673126,91.947929 335.866058,91.099266 
	C337.732391,82.889809 340.251587,74.689232 340.845947,66.362022 
	C341.799042,53.009769 335.041382,47.541714 321.763763,47.127155 
	C300.497009,46.463161 279.194336,46.950371 257.043823,46.954582 
	C255.131546,46.959778 254.082245,46.961388 252.578979,46.959675 
	C249.405258,46.962528 246.685501,46.968704 243.747711,46.846306 
	C243.340637,46.443748 243.151581,46.169765 243.023590,45.701553 
	C243.084656,45.507324 243.170700,45.109322 243.170700,45.109322 
	C270.129272,45.102024 297.087860,45.094727 324.785339,45.314209 
	C326.676880,45.739075 327.829529,45.937164 328.982147,46.135254 
	C328.982147,46.135254 329.266571,46.321518 329.676605,46.547180 
	C330.696838,46.934044 331.307007,47.095249 331.917206,47.256454 
	C341.041931,52.209881 344.967010,59.499664 342.653839,69.467651 
	C336.653595,95.324158 330.242676,121.085388 323.734924,147.107803 
	C324.386353,141.536224 325.132324,135.709244 326.248444,129.954056 
	C328.064911,120.587646 330.123260,111.268150 332.355347,101.277946 
	C332.786774,98.726631 332.942444,96.826241 333.098083,94.925842 
	C333.089874,94.528969 333.081665,94.132088 333.073730,93.438652 
z"/>
<path fill="#2E74AC" opacity="1.000000" stroke="none" 
	d="
M242.962524,45.895782 
	C243.151581,46.169765 243.340637,46.443748 243.757477,47.242691 
	C243.305664,48.839405 242.812988,50.610718 241.911377,50.851662 
	C239.212479,51.572880 239.106827,52.936241 239.821609,55.189655 
	C240.200287,56.383419 239.973419,57.769268 239.860229,59.367691 
	C234.472977,63.496799 235.553146,70.046951 232.970673,74.678894 
	C229.314011,72.444458 222.560944,73.717400 222.592026,76.540413 
	C222.630936,80.077087 220.435440,78.586990 218.922241,78.936478 
	C218.796997,78.814255 218.549713,78.566597 218.574554,78.173637 
	C219.251968,74.150146 219.904572,70.519615 220.557159,66.889084 
	C220.662064,66.470840 220.766968,66.052597 221.156723,65.086075 
	C222.684082,61.743202 223.926590,58.948605 225.169083,56.154007 
	C225.169083,56.154007 225.084885,55.983986 225.365997,55.978409 
	C225.782333,55.656727 225.917542,55.340614 226.052765,55.024506 
	C226.397766,54.646481 226.742783,54.268459 227.422745,53.514977 
	C227.944458,52.821724 228.131226,52.503929 228.317993,52.186131 
	C228.594299,52.090309 228.820847,51.925896 229.419159,51.415154 
	C231.194458,50.409943 232.548187,49.682472 234.273285,48.973122 
	C236.067062,48.652374 237.489441,48.313499 239.216461,47.968666 
	C240.015381,47.664730 240.509689,47.366749 241.020996,46.868870 
	C241.037994,46.668968 241.059387,46.268291 241.366776,46.161331 
	C242.103622,46.001511 242.533066,45.948647 242.962524,45.895782 
z"/>
<path fill="#7D7D7D" opacity="1.000000" stroke="none" 
	d="
M244.495087,273.415039 
	C245.032547,275.612610 245.372208,277.721497 245.142715,279.766541 
	C244.813354,282.701660 246.157089,283.401917 248.750748,283.668945 
	C250.196320,283.817749 251.537109,284.984314 252.933380,286.002289 
	C245.266556,286.464935 237.591446,286.617523 229.459259,286.296814 
	C228.403152,284.587036 228.131668,282.806702 227.145615,282.212891 
	C223.766006,280.177643 222.449570,277.419495 223.023270,273.619263 
	C230.029861,273.512115 237.036438,273.404968 244.495087,273.415039 
z"/>
<path fill="#3876A5" opacity="1.000000" stroke="none" 
	d="
M140.235931,80.723122 
	C140.326767,77.597504 140.666672,74.223885 141.279358,70.194672 
	C141.702255,68.360786 141.852356,67.182495 142.002441,66.004204 
	C142.319962,65.215958 142.637482,64.427711 142.940491,62.955086 
	C142.291840,60.512478 141.657715,58.754253 141.023590,56.996033 
	C140.591873,55.703102 140.160187,54.410172 139.338394,52.719109 
	C137.960892,51.221230 136.973495,50.121487 135.986099,49.021744 
	C116.913078,45.147751 97.609459,47.137772 78.433876,47.308887 
	C71.110596,47.374233 64.503792,51.818058 60.161293,58.514511 
	C58.663857,60.823669 56.668694,62.810055 54.573223,65.015594 
	C57.980541,53.933842 69.299606,45.273335 80.827148,45.158466 
	C95.779587,45.009480 110.737152,44.979874 125.688210,45.196110 
	C140.893387,45.416019 147.698059,54.511662 143.940674,69.271332 
	C142.977707,73.054024 141.646851,76.743065 140.235931,80.723122 
z"/>
<path fill="#7E7E7E" opacity="1.000000" stroke="none" 
	d="
M222.610779,273.468964 
	C222.449570,277.419495 223.766006,280.177643 227.145615,282.212891 
	C228.131668,282.806702 228.403152,284.587036 229.008362,286.171631 
	C227.288971,286.610840 225.563416,286.701904 223.404480,286.346863 
	C222.371582,285.331726 221.772079,284.762665 221.172577,284.193604 
	C220.780304,284.984924 220.388016,285.776245 219.995743,286.567566 
	C218.915039,286.649719 217.834320,286.731903 216.360291,286.692871 
	C214.729721,286.047729 213.534668,285.239807 212.248016,285.048737 
	C206.463791,284.189850 200.649948,283.531616 194.858429,282.718170 
	C194.302490,282.640076 193.826981,281.989380 193.337021,281.621674 
	C195.635834,277.187927 196.704453,277.246033 200.171890,279.967377 
	C201.900665,281.324158 204.777069,281.218719 206.612534,281.651611 
	C206.319611,278.269562 206.143570,276.237030 205.975052,273.859283 
	C207.709229,273.426178 209.435883,273.338257 211.603180,273.720520 
	C214.065048,276.775574 215.822235,277.340881 217.008789,273.541565 
	C218.738632,273.467255 220.468460,273.392975 222.610779,273.468964 
z"/>
<path fill="#2E70A6" opacity="1.000000" stroke="none" 
	d="
M132.003204,119.993881 
	C132.007935,118.903404 132.012665,117.812943 132.040283,116.313316 
	C135.477890,116.801300 138.879654,118.411201 142.309464,118.473351 
	C157.945099,118.756653 173.593170,118.815063 189.226471,118.477531 
	C193.722153,118.380470 198.183472,116.690529 203.121185,115.334557 
	C203.841629,114.701569 204.101425,114.464935 204.361237,114.228302 
	C205.453339,113.293724 206.545456,112.359146 208.064484,111.056900 
	C208.729813,110.173859 208.968231,109.658493 209.206635,109.143127 
	C209.206635,109.143120 209.023056,109.076599 209.375809,109.037910 
	C210.040298,108.780540 210.352036,108.561867 210.759613,108.782387 
	C210.900223,109.816307 210.944962,110.411026 210.748367,111.172844 
	C210.338440,111.889091 210.169861,112.438248 209.697174,113.139313 
	C203.453720,118.591042 196.453354,121.005440 188.546341,121.000389 
	C172.302826,120.990021 156.059067,121.041595 139.816040,120.952591 
	C137.210083,120.938309 134.607407,120.328430 132.003204,119.993881 
z"/>
<path fill="#63829C" opacity="1.000000" stroke="none" 
	d="
M272.445587,282.552246 
	C272.924377,281.048096 273.469208,278.501099 274.719086,278.088196 
	C281.487915,275.851990 283.417755,269.923035 284.442810,264.348419 
	C286.185150,254.872696 286.609650,245.154648 287.312134,235.269135 
	C288.230896,229.863831 289.425507,224.727844 291.058929,219.407867 
	C291.740326,219.425888 291.917511,219.674500 292.029297,219.969711 
	C292.006622,221.370071 291.983948,222.770447 291.735474,224.735748 
	C291.635742,225.865494 291.761841,226.430328 291.887939,226.995163 
	C290.780060,234.583542 289.632935,242.166504 288.587036,249.763412 
	C288.252106,252.196136 288.184998,254.665695 287.987183,257.939209 
	C287.983734,259.504456 287.988464,260.248901 287.993195,260.993347 
	C287.688354,262.079620 287.383514,263.165863 286.786316,264.862793 
	C286.659668,267.991516 286.825378,270.509521 286.991089,273.027527 
	C282.273071,276.183136 277.555054,279.338745 272.445587,282.552246 
z"/>
<path fill="#4E7FA4" opacity="1.000000" stroke="none" 
	d="
M124.008987,130.459290 
	C124.619736,130.110672 125.403107,130.078476 126.965233,130.215485 
	C128.538010,130.596176 129.331726,130.991135 130.126099,130.992462 
	C151.535110,131.028091 172.952332,131.343140 194.347458,130.798080 
	C199.621979,130.663696 204.824600,127.707657 210.392578,125.889084 
	C211.911972,125.537140 213.099030,125.344864 214.286102,125.152588 
	C208.625153,130.729568 201.345947,132.628723 193.889862,132.758408 
	C173.162720,133.118912 152.425201,132.985184 131.693329,132.834030 
	C129.184540,132.815720 126.685280,131.493576 124.008987,130.459290 
z"/>
<path fill="#437BA7" opacity="1.000000" stroke="none" 
	d="
M27.019506,242.638535 
	C26.943333,239.241180 26.564058,235.435608 27.334536,231.879105 
	C29.529947,221.745087 32.143478,211.699844 34.685627,201.643204 
	C37.902195,188.918594 41.210602,176.217194 44.840485,163.467834 
	C45.353451,163.689804 45.572208,163.867371 45.857841,163.962555 
	C40.455753,186.874893 35.058693,209.788406 29.645832,232.698196 
	C28.883953,235.922836 28.044802,239.129211 27.019506,242.638535 
z"/>
<path fill="#4E7FA4" opacity="1.000000" stroke="none" 
	d="
M233.063110,75.057381 
	C235.553146,70.046951 234.472977,63.496799 240.177155,59.317417 
	C241.442764,58.641266 242.231750,58.314686 243.331390,57.994011 
	C244.393890,58.228470 245.145737,58.457027 245.897598,58.685585 
	C240.119064,61.136990 236.975342,65.297859 235.627151,71.634644 
	C232.997223,83.995750 229.697159,96.218712 226.494949,108.451859 
	C224.767456,115.051292 221.411743,120.705444 215.259094,124.421547 
	C214.613571,123.799324 214.321960,123.397461 214.237244,122.728607 
	C216.295670,121.133308 218.940292,120.208275 219.857346,118.404793 
	C223.284241,111.665527 226.806290,104.856964 227.319824,96.840851 
	C227.706619,96.121017 227.864227,95.576576 228.033936,94.616257 
	C229.718399,87.819374 231.390747,81.438377 233.063110,75.057381 
z"/>
<path fill="#326891" opacity="1.000000" stroke="none" 
	d="
M246.371109,58.728626 
	C245.145737,58.457027 244.393890,58.228470 243.536133,57.734482 
	C244.290298,57.309048 245.150330,57.149036 246.446823,56.990852 
	C248.918579,56.980797 250.953903,56.968918 252.989212,56.957039 
	C270.438263,56.967770 287.887482,56.940025 305.336273,57.011192 
	C311.041046,57.034454 316.744751,57.315063 322.431854,57.779617 
	C321.960388,58.315475 321.506042,58.549702 321.051666,58.783928 
	C296.315979,58.779846 271.580292,58.775757 246.371109,58.728626 
z"/>
<path fill="#5788AC" opacity="1.000000" stroke="none" 
	d="
M81.067451,57.119484 
	C95.030037,57.110931 108.992630,57.102375 123.613846,57.319736 
	C124.836403,57.706367 125.400314,57.867081 125.964233,58.027794 
	C125.964233,58.027798 125.999855,58.023876 125.997604,58.319981 
	C126.010735,58.995434 126.026115,59.374779 126.041504,59.754128 
	C120.610420,59.478477 115.181839,59.052528 109.747688,58.962193 
	C101.471848,58.824619 93.188721,59.065422 84.915146,58.870712 
	C77.932838,58.706383 72.751793,61.380363 69.141479,67.743362 
	C68.035324,61.514305 73.479935,60.611187 78.013161,58.180206 
	C79.464973,57.724976 80.266212,57.422230 81.067451,57.119484 
z"/>
<path fill="#2E70A6" opacity="1.000000" stroke="none" 
	d="
M126.380699,59.932507 
	C126.026115,59.374779 126.010735,58.995434 125.982597,58.331993 
	C127.286873,58.794048 128.603897,59.540192 130.087067,60.938538 
	C130.503220,62.393520 130.753250,63.196301 131.003281,63.999084 
	C131.002167,65.388458 131.001038,66.777832 131.000885,68.584061 
	C129.669861,74.016258 128.440979,79.061981 126.974762,84.037766 
	C125.702156,88.356422 124.160851,92.595894 122.379410,96.939377 
	C124.128479,87.536621 126.475319,78.107765 128.189636,68.565277 
	C128.664764,65.920517 127.261406,62.938286 126.380699,59.932507 
z"/>
<path fill="#5788AC" opacity="1.000000" stroke="none" 
	d="
M47.869953,156.090485 
	C47.760899,154.247681 47.560703,152.081085 48.056801,150.087784 
	C51.202328,137.449097 54.501827,124.848732 58.044159,112.087067 
	C54.925434,126.574539 51.513092,141.210678 47.869953,156.090485 
z"/>
<path fill="#4F81AA" opacity="1.000000" stroke="none" 
	d="
M304.922424,225.634277 
	C304.973999,222.596054 304.925476,219.205429 305.632324,215.980362 
	C307.236633,208.660629 309.175323,201.412628 311.065094,194.158127 
	C311.510254,192.449158 312.299866,190.829910 313.256836,189.055130 
	C310.776917,201.079590 307.971100,213.218323 304.922424,225.634277 
z"/>
<path fill="#2E70A6" opacity="1.000000" stroke="none" 
	d="
M132.408417,112.228180 
	C132.846176,108.046021 133.439743,103.740883 134.322601,99.495911 
	C135.427261,94.184418 136.742584,88.915733 138.036133,83.645546 
	C138.250900,82.770554 138.818359,81.982124 139.594238,81.069427 
	C138.610413,87.486954 137.342178,94.008545 135.867477,100.483124 
	C134.974518,104.403709 133.761719,108.251450 132.408417,112.228180 
z"/>
<path fill="#4F81AA" opacity="1.000000" stroke="none" 
	d="
M315.006348,179.026093 
	C317.299316,170.080200 319.592224,161.134308 322.200958,152.070084 
	C320.291351,161.670151 318.065948,171.388565 315.496094,180.956573 
	C315.103241,180.212830 315.054810,179.619461 315.006348,179.026093 
z"/>
<path fill="#437BA7" opacity="1.000000" stroke="none" 
	d="
M26.717907,272.870239 
	C23.571672,274.904633 21.882286,272.356476 21.088692,270.088348 
	C20.204502,267.561279 19.745617,264.461243 20.365303,261.918610 
	C21.746014,256.253387 23.913742,250.779953 26.059002,245.098358 
	C25.011387,250.897720 23.685467,256.831665 22.313023,262.754883 
	C21.313219,267.069824 21.977449,270.641754 26.717907,272.870239 
z"/>
<path fill="#28699E" opacity="1.000000" stroke="none" 
	d="
M121.347198,98.089691 
	C121.815315,100.054268 122.456398,102.358467 122.126595,104.514122 
	C121.319214,109.791298 120.063484,114.999886 118.654068,120.647820 
	C117.890724,121.039680 117.461487,121.019798 117.032242,120.999916 
	C118.380981,113.453857 119.729729,105.907791 121.347198,98.089691 
z"/>
<path fill="#3876A5" opacity="1.000000" stroke="none" 
	d="
M53.897205,65.592407 
	C54.103024,67.735855 54.518177,70.249863 53.954937,72.521255 
	C52.675037,77.682747 50.914219,82.724976 49.041824,87.923752 
	C50.377285,80.638817 52.019802,73.245811 53.897205,65.592407 
z"/>
<path fill="#2E70A6" opacity="1.000000" stroke="none" 
	d="
M213.599365,95.905586 
	C213.720993,95.488052 213.842621,95.070526 214.223114,94.066177 
	C215.182037,90.272118 215.882095,87.064873 216.582153,83.857635 
	C216.977936,82.468201 217.373703,81.078766 217.976929,79.252029 
	C218.184372,78.814735 218.549713,78.566597 218.549713,78.566597 
	C218.549713,78.566597 218.796997,78.814255 218.907867,79.379044 
	C218.363525,83.221024 217.640976,86.486649 217.075516,89.779259 
	C216.663208,92.179924 216.850983,94.753326 216.065460,97.003326 
	C214.976486,100.122528 213.225555,103.010628 211.756287,105.645447 
	C211.717484,104.830551 211.680435,104.367882 211.643372,103.905205 
	C211.767899,103.489410 211.892426,103.073616 212.266510,102.077034 
	C212.877167,99.632690 213.238266,97.769135 213.599365,95.905586 
z"/>
<path fill="#848A8E" opacity="1.000000" stroke="none" 
	d="
M159.274323,166.949158 
	C159.624680,162.535629 160.319962,158.212097 161.005096,153.457245 
	C161.755890,152.986099 162.516815,152.946243 163.648956,153.004776 
	C163.578857,155.374115 163.197601,157.658875 162.678680,159.911942 
	C162.201324,161.984497 161.575790,164.022949 161.016693,166.462006 
	C160.551651,166.911453 160.085449,166.975311 159.274323,166.949158 
z"/>
<path fill="#4F81AA" opacity="1.000000" stroke="none" 
	d="
M299.687164,246.399857 
	C300.614166,241.154678 301.805603,235.648560 303.325836,230.017868 
	C302.420288,235.308502 301.185944,240.723709 299.687164,246.399857 
z"/>
<path fill="#5788AC" opacity="1.000000" stroke="none" 
	d="
M59.076412,109.678589 
	C59.801510,105.035889 60.770485,100.122536 62.029709,95.066055 
	C61.320068,99.751259 60.320179,104.579590 59.076412,109.678589 
z"/>
<path fill="#5788AC" opacity="1.000000" stroke="none" 
	d="
M65.113976,84.693573 
	C65.838737,80.048737 66.811150,75.135742 68.086243,70.076431 
	C67.379822,74.761879 66.370728,79.593651 65.113976,84.693573 
z"/>
<path fill="#4E7FA4" opacity="1.000000" stroke="none" 
	d="
M325.975891,78.006531 
	C325.641754,79.406982 325.307617,80.807434 324.712830,82.826866 
	C324.294067,84.627022 324.135956,85.808197 323.977844,86.989365 
	C323.977814,86.989365 324.001221,86.990990 323.783997,87.000244 
	C323.295563,87.067131 323.021545,87.089005 322.744629,87.075119 
	C323.768463,82.245697 324.792267,77.416267 326.258911,72.269150 
	C326.701752,71.951462 327.109833,71.949417 327.109833,71.949417 
	C327.063721,72.693275 327.017578,73.437126 326.716248,74.782623 
	C326.299316,76.258354 326.137604,77.132446 325.975891,78.006531 
z"/>
<path fill="#4F81AA" opacity="1.000000" stroke="none" 
	d="
M295.667023,260.430664 
	C296.366852,256.874817 297.358215,253.106949 298.674805,249.171783 
	C297.986176,252.742523 296.972351,256.480591 295.667023,260.430664 
z"/>
<path fill="#4F81AA" opacity="1.000000" stroke="none" 
	d="
M287.301636,272.913818 
	C286.825378,270.509521 286.659668,267.991516 286.793488,265.223877 
	C287.391052,265.445129 287.689087,265.915985 288.049408,267.029877 
	C288.850891,268.130798 289.590118,268.588715 290.329315,269.046631 
	C289.423615,270.297791 288.517914,271.548950 287.301636,272.913818 
z"/>
<path fill="#C3E1F1" opacity="1.000000" stroke="none" 
	d="
M218.574554,78.173637 
	C218.549713,78.566597 218.184372,78.814735 217.973083,78.879227 
	C218.482025,75.014503 219.202225,71.085304 220.239807,67.022591 
	C219.904572,70.519615 219.251968,74.150146 218.574554,78.173637 
z"/>
<path fill="#4E7FA4" opacity="1.000000" stroke="none" 
	d="
M117.021027,121.367905 
	C117.461487,121.019798 117.890724,121.039680 118.640915,121.081818 
	C119.750679,122.637360 120.539474,124.170639 121.639297,126.217590 
	C122.024925,127.429588 122.099525,128.127914 122.087784,128.914749 
	C122.001450,129.003250 121.830292,129.181717 121.830292,129.181717 
	C120.223465,126.699776 118.616631,124.217834 117.021027,121.367905 
z"/>
<path fill="#C3E1F1" opacity="1.000000" stroke="none" 
	d="
M216.262543,83.995590 
	C215.882095,87.064873 215.182037,90.272118 214.232117,93.739059 
	C214.635803,90.710358 215.289352,87.421951 216.262543,83.995590 
z"/>
<path fill="#4E7FA4" opacity="1.000000" stroke="none" 
	d="
M323.011230,90.001091 
	C323.011230,90.001091 322.992798,90.474670 322.798309,90.823135 
	C322.364227,91.368607 322.227966,91.621300 322.195038,91.929672 
	C321.801666,94.019447 321.408325,96.109222 320.731018,98.613586 
	C320.092712,99.039459 319.738342,99.050735 319.384003,99.062012 
	C320.166962,95.905106 320.949921,92.748192 322.167725,89.420639 
	C322.811157,89.460991 322.947357,89.711357 323.011230,90.001091 
z"/>
<path fill="#C3E1F1" opacity="1.000000" stroke="none" 
	d="
M224.811646,56.152477 
	C223.926590,58.948605 222.684082,61.743202 221.176056,64.761871 
	C222.091766,62.040951 223.272980,59.095947 224.811646,56.152477 
z"/>
<path fill="#2E74AC" opacity="1.000000" stroke="none" 
	d="
M214.030350,122.995605 
	C214.321960,123.397461 214.613571,123.799324 214.934738,124.462555 
	C214.964294,124.723907 214.693771,125.047203 214.489929,125.099899 
	C213.099030,125.344864 211.911972,125.537140 210.239655,125.563354 
	C209.530502,124.146477 209.306595,122.895668 209.116760,121.835258 
	C211.220688,122.332100 212.625519,122.663857 214.030350,122.995605 
z"/>
<path fill="#7D7D7D" opacity="1.000000" stroke="none" 
	d="
M216.604919,273.408020 
	C215.822235,277.340881 214.065048,276.775574 212.018448,273.845428 
	C213.395737,273.424927 214.798386,273.349670 216.604919,273.408020 
z"/>
<path fill="#326891" opacity="1.000000" stroke="none" 
	d="
M319.197540,99.459709 
	C319.738342,99.050735 320.092712,99.039459 320.712219,99.011421 
	C320.981171,100.061729 320.984955,101.128792 320.984680,102.595856 
	C320.286469,104.231064 319.592285,105.466278 318.514465,106.726524 
	C318.424286,104.453506 318.717682,102.155457 319.197540,99.459709 
z"/>
<path fill="#C3E1F1" opacity="1.000000" stroke="none" 
	d="
M213.288513,96.014709 
	C213.238266,97.769135 212.877167,99.632690 212.274414,101.750534 
	C212.347717,100.044487 212.662689,98.084160 213.288513,96.014709 
z"/>
<path fill="#C3E1F1" opacity="1.000000" stroke="none" 
	d="
M211.321198,104.006958 
	C211.680435,104.367882 211.717484,104.830551 211.591705,105.852654 
	C211.173859,107.055779 210.918808,107.699478 210.663757,108.343185 
	C210.352036,108.561867 210.040298,108.780540 209.457962,109.090645 
	C209.791245,107.490952 210.395126,105.799835 211.321198,104.006958 
z"/>
<path fill="#5788AC" opacity="1.000000" stroke="none" 
	d="
M63.101234,92.703583 
	C63.193096,91.037315 63.514557,89.105347 64.124481,87.048088 
	C64.052246,88.761162 63.691544,90.599525 63.101234,92.703583 
z"/>
<path fill="#7D7D7D" opacity="1.000000" stroke="none" 
	d="
M220.363647,286.684174 
	C220.388016,285.776245 220.780304,284.984924 221.172577,284.193604 
	C221.772079,284.762665 222.371582,285.331726 222.987823,286.226929 
	C222.246872,286.635620 221.489197,286.718201 220.363647,286.684174 
z"/>
<path fill="#C3E1F1" opacity="1.000000" stroke="none" 
	d="
M233.901917,48.954998 
	C232.548187,49.682472 231.194458,50.409943 229.522919,51.229912 
	C230.511673,50.191708 231.818268,49.061012 233.578735,47.979385 
	C234.032623,48.028450 234.215225,48.227638 234.131500,48.407154 
	C234.047775,48.586670 233.901917,48.954994 233.901917,48.954998 
z"/>
<path fill="#4F81AA" opacity="1.000000" stroke="none" 
	d="
M291.727539,267.236572 
	C291.984802,266.257202 292.524414,265.155762 293.403259,264.000732 
	C293.164917,265.002899 292.587402,266.058716 291.727539,267.236572 
z"/>
<path fill="#C3E1F1" opacity="1.000000" stroke="none" 
	d="
M328.831696,45.852020 
	C327.829529,45.937164 326.676880,45.739075 325.252808,45.322971 
	C326.214630,45.259567 327.447937,45.414177 328.831696,45.852020 
z"/>
<path fill="#63829C" opacity="1.000000" stroke="none" 
	d="
M292.261780,213.598145 
	C292.631592,214.254730 292.762573,215.144516 292.643585,216.506653 
	C292.090729,217.017242 291.786682,217.032913 291.481445,217.025955 
	C291.661957,215.961075 291.842468,214.896210 292.261780,213.598145 
z"/>
<path fill="#4E7FA4" opacity="1.000000" stroke="none" 
	d="
M326.258209,62.278694 
	C326.774475,62.775066 327.286560,63.600197 327.607025,64.640945 
	C327.028259,64.106857 326.641144,63.357155 326.258209,62.278694 
z"/>
<path fill="#326891" opacity="1.000000" stroke="none" 
	d="
M323.271301,89.791199 
	C322.947357,89.711357 322.811157,89.460991 322.410156,89.152237 
	C322.266632,88.592285 322.315521,88.130089 322.554504,87.371506 
	C323.021545,87.089005 323.295563,87.067131 323.772461,86.992561 
	C323.829254,87.844177 323.680298,88.712738 323.271301,89.791199 
z"/>
<path fill="#427EAC" opacity="1.000000" stroke="none" 
	d="
M290.531006,268.890533 
	C289.590118,268.588715 288.850891,268.130798 288.067474,267.321564 
	C288.864105,267.026581 289.704926,267.082947 290.955017,267.267242 
	C291.153748,267.841583 290.943207,268.288025 290.531006,268.890533 
z"/>
<path fill="#427EAC" opacity="1.000000" stroke="none" 
	d="
M291.321259,217.334351 
	C291.786682,217.032913 292.090729,217.017242 292.618500,216.957031 
	C292.742004,217.805038 292.640625,218.674957 292.284271,219.757294 
	C291.917511,219.674500 291.740326,219.425888 291.290283,219.121918 
	C291.108917,218.560867 291.135010,218.101807 291.321259,217.334351 
z"/>
<path fill="#2E70A6" opacity="1.000000" stroke="none" 
	d="
M132.126862,115.598053 
	C131.846542,115.004448 131.611359,114.040398 131.682220,113.039001 
	C132.049515,113.743637 132.110748,114.485619 132.126862,115.598053 
z"/>
<path fill="#5788AC" opacity="1.000000" stroke="none" 
	d="
M46.060631,163.705566 
	C45.572208,163.867371 45.353451,163.689804 45.119102,163.232025 
	C45.044708,162.867432 45.052788,162.700729 45.273418,162.160248 
	C45.726456,161.568207 45.880032,161.300171 45.946701,160.982315 
	C45.946701,160.982315 46.276634,160.902664 46.446152,160.908737 
	C46.498249,161.759399 46.380833,162.604004 46.060631,163.705566 
z"/>
<path fill="#C3E1F1" opacity="1.000000" stroke="none" 
	d="
M243.023590,45.701553 
	C242.533066,45.948647 242.103622,46.001511 241.063232,46.110275 
	C240.043671,46.193424 239.635025,46.220673 239.128235,46.140564 
	C239.030106,46.033199 238.835266,45.817184 238.835266,45.817184 
	C240.028427,45.537018 241.221573,45.256851 242.792725,45.043003 
	C243.170700,45.109322 243.084656,45.507324 243.023590,45.701553 
z"/>
<path fill="#8C8F90" opacity="1.000000" stroke="none" 
	d="
M191.721848,270.747498 
	C191.152344,270.555664 190.584442,270.069489 190.019104,269.269409 
	C190.588928,269.454742 191.156189,269.953979 191.721848,270.747498 
z"/>
<path fill="#4E7FA4" opacity="1.000000" stroke="none" 
	d="
M321.251251,59.002426 
	C321.506042,58.549702 321.960388,58.315475 322.683899,58.097618 
	C322.990997,58.440380 323.041534,58.764820 323.128326,59.333534 
	C322.584961,59.460155 322.017914,59.340542 321.251251,59.002426 
z"/>
<path fill="#326891" opacity="1.000000" stroke="none" 
	d="
M327.335999,71.776047 
	C327.109833,71.949417 326.701752,71.951462 326.502014,71.992752 
	C326.359192,71.587929 326.416107,71.141800 326.844421,70.387650 
	C327.467957,70.024178 327.722626,69.986443 327.979919,69.966446 
	C327.840668,70.511848 327.701416,71.057259 327.335999,71.776047 
z"/>
<path fill="#63829C" opacity="1.000000" stroke="none" 
	d="
M296.907471,194.251236 
	C297.110931,194.675293 297.111084,195.302231 296.883972,196.011993 
	C296.672577,195.547913 296.688385,195.001022 296.907471,194.251236 
z"/>
<path fill="#63829C" opacity="1.000000" stroke="none" 
	d="
M295.970032,198.245224 
	C296.161804,198.681641 296.129578,199.301605 295.869751,199.989487 
	C295.676819,199.514526 295.711456,198.971649 295.970032,198.245224 
z"/>
<path fill="#63829C" opacity="1.000000" stroke="none" 
	d="
M294.164246,205.567703 
	C294.339142,206.148285 294.305206,206.946136 293.992340,207.903839 
	C293.794098,207.304123 293.874786,206.544540 294.164246,205.567703 
z"/>
<path fill="#8C8F90" opacity="1.000000" stroke="none" 
	d="
M194.759644,272.980042 
	C194.301956,273.051025 193.667923,272.890137 193.001556,272.462433 
	C193.507263,272.379822 194.045273,272.564026 194.759644,272.980042 
z"/>
<path fill="#4E7FA4" opacity="1.000000" stroke="none" 
	d="
M327.976868,69.704193 
	C327.722626,69.986443 327.467957,70.024178 327.023560,70.097275 
	C326.850586,69.568497 326.869904,69.022079 327.106018,68.286598 
	C327.539795,68.545670 327.756775,68.993813 327.976868,69.704193 
z"/>
<path fill="#C3E1F1" opacity="1.000000" stroke="none" 
	d="
M235.835358,46.811161 
	C236.622803,46.511345 237.410248,46.211533 238.516479,45.864449 
	C238.835266,45.817184 239.030106,46.033199 239.041290,46.308586 
	C239.052460,46.583973 238.930313,46.942623 238.937866,46.954720 
	C238.945404,46.966812 238.942780,46.932022 238.595947,46.922623 
	C237.566528,47.030495 236.883926,47.147770 236.110474,47.151054 
	C236.019623,47.037067 235.835358,46.811161 235.835358,46.811161 
z"/>
<path fill="#427EAC" opacity="1.000000" stroke="none" 
	d="
M314.756622,179.221863 
	C315.054810,179.619461 315.103241,180.212830 315.255432,181.245850 
	C315.359161,181.685501 315.369781,181.873795 315.305664,181.942673 
	C314.996674,181.146912 314.751770,180.282272 314.756622,179.221863 
z"/>
<path fill="#437BA7" opacity="1.000000" stroke="none" 
	d="
M47.147964,158.705688 
	C46.939262,158.122086 46.914707,157.244583 47.229500,156.383820 
	C47.489937,157.070953 47.411018,157.741379 47.147964,158.705688 
z"/>
<path fill="#C3E1F1" opacity="1.000000" stroke="none" 
	d="
M233.942688,47.927628 
	C234.331146,47.536095 234.809555,47.245380 235.561661,46.882912 
	C235.835358,46.811161 236.019623,47.037067 235.899139,47.335449 
	C235.257507,47.831764 234.736374,48.029701 234.215225,48.227638 
	C234.215225,48.227638 234.032623,48.028450 233.942688,47.927628 
z"/>
<path fill="#C3E1F1" opacity="1.000000" stroke="none" 
	d="
M331.757782,46.939575 
	C331.307007,47.095249 330.696838,46.934044 329.845947,46.561932 
	C330.269653,46.441578 330.933990,46.532139 331.757782,46.939575 
z"/>
<path fill="#C3E1F1" opacity="1.000000" stroke="none" 
	d="
M208.916779,109.221024 
	C208.968231,109.658493 208.729813,110.173859 208.210266,110.782364 
	C208.161713,110.349983 208.394318,109.824455 208.916779,109.221024 
z"/>
<path fill="#4F81AA" opacity="1.000000" stroke="none" 
	d="
M303.968689,229.353027 
	C303.805145,229.124939 303.847504,228.854950 303.971313,228.465591 
	C304.117798,228.551620 304.236877,228.754913 304.290344,228.974228 
	C304.313171,229.067841 304.199036,229.194870 303.968689,229.353027 
z"/>
<path fill="#4E7FA4" opacity="1.000000" stroke="none" 
	d="
M324.974243,59.853523 
	C324.974243,59.853523 325.060425,60.269463 325.062927,60.481735 
	C324.606628,60.530636 324.147827,60.367264 323.581116,59.976624 
	C323.473206,59.749348 323.802429,59.665127 324.169983,59.735970 
	C324.537567,59.806808 324.974243,59.853523 324.974243,59.853523 
z"/>
<path fill="#4E7FA4" opacity="1.000000" stroke="none" 
	d="
M123.996368,129.040100 
	C123.988091,129.228210 123.979820,129.416306 123.921333,129.883194 
	C123.292038,130.013947 122.712944,129.865906 121.982071,129.449799 
	C121.830292,129.181717 122.001450,129.003250 122.386932,128.974548 
	C123.180397,128.977264 123.588387,129.008682 123.996368,129.040100 
z"/>
<path fill="#C3E1F1" opacity="1.000000" stroke="none" 
	d="
M204.070770,114.236618 
	C204.101425,114.464935 203.841629,114.701569 203.322418,115.020416 
	C203.302109,114.816719 203.541214,114.530823 204.070770,114.236618 
z"/>
<path fill="#C3E1F1" opacity="1.000000" stroke="none" 
	d="
M228.014709,52.250336 
	C228.131226,52.503929 227.944458,52.821724 227.508240,53.270065 
	C227.409683,53.038582 227.560562,52.676559 228.014709,52.250336 
z"/>
<path fill="#C3E1F1" opacity="1.000000" stroke="none" 
	d="
M225.802429,55.120152 
	C225.917542,55.340614 225.782333,55.656727 225.396942,56.067459 
	C225.281891,55.846653 225.417007,55.531227 225.802429,55.120152 
z"/>
<path fill="#427EAC" opacity="1.000000" stroke="none" 
	d="
M322.165070,148.044220 
	C322.421295,147.792755 322.677551,147.541290 323.216003,147.329315 
	C323.498260,147.368820 323.598785,147.745117 323.189728,147.892548 
	C322.575470,148.041412 322.370270,148.042816 322.165070,148.044220 
z"/>
<path fill="#63829C" opacity="1.000000" stroke="none" 
	d="
M292.937073,210.340271 
	C293.075897,210.334427 293.068970,210.702621 292.990692,210.868225 
	C292.635712,210.857269 292.597687,210.628036 292.937073,210.340271 
z"/>
<path fill="#63829C" opacity="1.000000" stroke="none" 
	d="
M297.868408,190.245972 
	C298.009735,190.193405 298.006287,190.607422 297.943359,190.691040 
	C297.880463,190.774673 297.647034,190.586960 297.647034,190.586960 
	C297.647034,190.586960 297.727112,190.298553 297.868408,190.245972 
z"/>
<path fill="#4F81AA" opacity="1.000000" stroke="none" 
	d="
M322.951599,150.558838 
	C322.844360,150.500687 322.838684,150.351303 322.867523,150.283661 
	C322.896362,150.216003 323.178162,150.320969 323.178162,150.320969 
	C323.178162,150.320969 323.058868,150.616989 322.951599,150.558838 
z"/>
<path fill="#4F81AA" opacity="1.000000" stroke="none" 
	d="
M322.249939,148.267487 
	C322.370270,148.042816 322.575470,148.041412 323.089172,148.059357 
	C323.397705,148.078705 323.405823,148.569199 323.270325,148.773438 
	C322.795868,148.934067 322.529175,148.771759 322.249939,148.267487 
z"/>
<path fill="#2672AE" opacity="1.000000" stroke="none" 
	d="
M34.001282,275.387329 
	C43.679047,274.977936 53.355640,274.979156 63.496548,274.978394 
	C63.976238,276.417023 63.991619,277.857635 64.003647,279.649109 
	C62.027622,280.665497 60.092285,281.733215 58.075207,281.920471 
	C52.208084,282.465118 46.304253,282.599091 40.422279,283.002960 
	C33.848675,283.454254 33.608650,283.233429 34.001282,275.387329 
z"/>
<path fill="#2671AE" opacity="1.000000" stroke="none" 
	d="
M131.394028,63.991966 
	C130.753250,63.196301 130.503220,62.393520 130.129944,61.295517 
	C131.087616,60.069405 132.163437,59.132404 133.258377,58.218281 
	C133.354492,58.138027 133.575760,58.207638 134.102234,58.207638 
	C135.422745,60.912682 135.879623,63.216812 131.394028,63.991966 
z"/>
<path fill="#2E70A6" opacity="1.000000" stroke="none" 
	d="
M140.667648,57.036812 
	C141.657715,58.754253 142.291840,60.512478 142.962585,62.635277 
	C137.394623,60.606895 137.118683,59.998837 140.667648,57.036812 
z"/>
<path fill="#2E70A6" opacity="1.000000" stroke="none" 
	d="
M135.991089,49.415070 
	C136.973495,50.121487 137.960892,51.221230 138.981293,52.647865 
	C136.143005,54.054127 136.143005,54.054127 135.991089,49.415070 
z"/>
<path fill="#2E70A6" opacity="1.000000" stroke="none" 
	d="
M141.704773,66.024185 
	C141.852356,67.182495 141.702255,68.360786 141.283554,69.774750 
	C140.678482,69.233276 140.342010,68.456123 140.003250,67.339691 
	C140.469681,66.681671 140.938385,66.362923 141.704773,66.024185 
z"/>
<path fill="#2E70A6" opacity="1.000000" stroke="none" 
	d="
M80.899521,56.865303 
	C80.266212,57.422230 79.464973,57.724976 78.325500,58.031704 
	C78.902039,57.560833 79.816811,57.085976 80.899521,56.865303 
z"/>
<path fill="#2E70A6" opacity="1.000000" stroke="none" 
	d="
M125.798111,57.768089 
	C125.400314,57.867081 124.836403,57.706367 124.074699,57.321281 
	C124.461937,57.234066 125.046959,57.371227 125.798111,57.768089 
z"/>
<path fill="#437BA7" opacity="1.000000" stroke="none" 
	d="
M45.744057,161.103836 
	C45.880032,161.300171 45.726456,161.568207 45.287498,161.910294 
	C45.133759,161.705200 45.284554,161.435608 45.744057,161.103836 
z"/>
<path fill="#256CA8" opacity="1.000000" stroke="none" 
	d="
M332.805969,95.137741 
	C332.942444,96.826241 332.786774,98.726631 332.367859,100.855728 
	C332.240997,99.172829 332.377411,97.261230 332.805969,95.137741 
z"/>
<path fill="#427EAC" opacity="1.000000" stroke="none" 
	d="
M288.327576,260.946960 
	C287.988464,260.248901 287.983734,259.504456 287.988281,258.388245 
	C288.219025,258.977814 288.440491,259.939178 288.327576,260.946960 
z"/>
<path fill="#427EAC" opacity="1.000000" stroke="none" 
	d="
M292.129578,226.861389 
	C291.761841,226.430328 291.635742,225.865494 291.721741,225.155655 
	C292.079620,225.582962 292.225433,226.155273 292.129578,226.861389 
z"/>
<path fill="#2671AD" opacity="1.000000" stroke="none" 
	d="
M112.991386,162.332581 
	C114.598015,156.542831 119.957573,155.781921 123.777489,155.519592 
	C135.302597,154.728088 146.916779,155.233871 159.038986,155.233871 
	C158.052170,158.707123 157.221313,161.631454 156.256790,165.026245 
	C149.045898,165.026245 141.773071,165.490921 134.586639,164.901718 
	C126.652527,164.251221 120.396896,166.441254 115.386208,172.989044 
	C114.356361,169.597595 113.680161,166.156631 112.991386,162.332581 
z"/>
<path fill="#2E74AC" opacity="1.000000" stroke="none" 
	d="
M252.997345,56.584518 
	C250.953903,56.968918 248.918579,56.980797 246.445984,56.602211 
	C247.228561,54.794399 248.521957,53.432728 249.648315,51.944607 
	C250.858292,50.345966 251.911377,48.628571 253.032944,46.962997 
	C254.082245,46.961388 255.131546,46.959778 256.572998,46.960705 
	C255.645279,50.046162 254.325378,53.129082 252.997345,56.584518 
z"/>
<path fill="#326891" opacity="1.000000" stroke="none" 
	d="
M324.255493,86.758484 
	C324.135956,85.808197 324.294067,84.627022 324.707031,83.193848 
	C324.818970,84.137100 324.676056,85.332352 324.255493,86.758484 
z"/>
<path fill="#326891" opacity="1.000000" stroke="none" 
	d="
M326.243866,77.795517 
	C326.137604,77.132446 326.299316,76.258354 326.708069,75.155258 
	C326.807373,75.812325 326.659607,76.698418 326.243866,77.795517 
z"/>
<path fill="#326891" opacity="1.000000" stroke="none" 
	d="
M322.381897,91.817993 
	C322.227966,91.621300 322.364227,91.368607 322.795319,91.060081 
	C322.930145,91.246834 322.790771,91.499413 322.381897,91.817993 
z"/>
<path fill="#326891" opacity="1.000000" stroke="none" 
	d="
M324.911377,59.719566 
	C324.974243,59.853523 324.537567,59.806808 324.338623,59.715286 
	C324.369110,59.345604 324.605377,59.332886 324.911377,59.719566 
z"/>
<path fill="#226CAA" opacity="1.000000" stroke="none" 
	d="
M210.759613,108.782379 
	C210.918808,107.699478 211.173859,107.055779 211.593475,106.204880 
	C213.225555,103.010628 214.976486,100.122528 216.065460,97.003326 
	C216.850983,94.753326 216.663208,92.179924 217.075516,89.779259 
	C217.640976,86.486649 218.363525,83.221024 219.033112,79.501266 
	C220.435440,78.586990 222.630936,80.077087 222.592026,76.540413 
	C222.560944,73.717400 229.314011,72.444458 232.970657,74.678894 
	C231.390747,81.438377 229.718399,87.819374 227.736023,94.637848 
	C227.314224,95.722298 227.202438,96.369270 227.090652,97.016243 
	C226.806290,104.856964 223.284241,111.665527 219.857346,118.404793 
	C218.940292,120.208275 216.295670,121.133308 214.237244,122.728607 
	C212.625519,122.663857 211.220688,122.332100 209.116760,121.835258 
	C209.306595,122.895668 209.530502,124.146477 209.907349,125.723015 
	C204.824600,127.707657 199.621979,130.663696 194.347458,130.798080 
	C172.952332,131.343140 151.535110,131.028091 130.126099,130.992462 
	C129.331726,130.991135 128.538010,130.596176 127.357513,130.220795 
	C126.971039,126.578957 126.971039,123.101006 126.971039,120.328148 
	C129.060593,120.476654 130.474548,120.577141 131.945847,120.335754 
	C134.607407,120.328430 137.210083,120.938309 139.816040,120.952591 
	C156.059067,121.041595 172.302826,120.990021 188.546341,121.000389 
	C196.453354,121.005440 203.453720,118.591042 209.968475,113.379723 
	C211.300613,114.997131 210.758698,117.709015 214.173645,116.497482 
	C218.706497,114.889359 221.332199,110.069336 219.531982,104.326187 
	C218.030746,106.407455 216.599182,107.920364 215.733032,109.707344 
	C214.536667,112.175621 213.033417,112.265846 210.989716,111.005753 
	C210.944962,110.411026 210.900223,109.816307 210.759613,108.782379 
z"/>
<path fill="#28699E" opacity="1.000000" stroke="none" 
	d="
M123.993469,128.677475 
	C123.588387,129.008682 123.180397,128.977264 122.473267,128.886047 
	C122.099525,128.127914 122.024925,127.429588 121.928841,126.379036 
	C122.601761,126.789490 123.296165,127.552170 123.993469,128.677475 
z"/>
<path fill="#256CA8" opacity="1.000000" stroke="none" 
	d="
M252.578979,46.959671 
	C251.911377,48.628571 250.858292,50.345966 249.648315,51.944607 
	C248.521957,53.432728 247.228561,54.794399 246.009552,56.600384 
	C245.150330,57.149036 244.290298,57.309048 243.225494,57.728580 
	C242.231750,58.314686 241.442764,58.641266 240.336853,59.018127 
	C239.973419,57.769268 240.200287,56.383419 239.821609,55.189655 
	C239.106827,52.936241 239.212479,51.572880 241.911377,50.851662 
	C242.812988,50.610718 243.305664,48.839405 243.975494,47.371269 
	C246.685501,46.968704 249.405258,46.962528 252.578979,46.959671 
z"/>
<path fill="#4F81AA" opacity="1.000000" stroke="none" 
	d="
M234.131500,48.407150 
	C234.736374,48.029701 235.257507,47.831764 235.989990,47.449440 
	C236.883926,47.147770 237.566528,47.030495 238.599304,47.183674 
	C238.936935,47.627625 238.924393,47.801125 238.911835,47.974625 
	C237.489441,48.313499 236.067062,48.652374 234.273285,48.973122 
	C233.901917,48.954994 234.047775,48.586670 234.131500,48.407150 
z"/>
<path fill="#256CA8" opacity="1.000000" stroke="none" 
	d="
M239.216461,47.968666 
	C238.924393,47.801125 238.936935,47.627625 238.946136,47.193077 
	C238.942780,46.932022 238.945404,46.966812 239.282227,46.995510 
	C240.080704,47.039062 240.542343,47.053917 241.003998,47.068771 
	C240.509689,47.366749 240.015381,47.664730 239.216461,47.968666 
z"/>
<path fill="#4F81AA" opacity="1.000000" stroke="none" 
	d="
M241.020996,46.868870 
	C240.542343,47.053917 240.080704,47.039062 239.274689,46.983414 
	C238.930313,46.942623 239.052460,46.583973 239.139420,46.415947 
	C239.635025,46.220673 240.043671,46.193424 240.755859,46.217232 
	C241.059387,46.268291 241.037994,46.668968 241.020996,46.868870 
z"/>
<path fill="#2E74AC" opacity="1.000000" stroke="none" 
	d="
M210.748367,111.172844 
	C213.033417,112.265846 214.536667,112.175621 215.733032,109.707344 
	C216.599182,107.920364 218.030746,106.407455 219.531982,104.326187 
	C221.332199,110.069336 218.706497,114.889359 214.173645,116.497482 
	C210.758698,117.709015 211.300613,114.997131 210.272598,113.227814 
	C210.169861,112.438248 210.338440,111.889091 210.748367,111.172844 
z"/>
<path fill="#2E74AC" opacity="1.000000" stroke="none" 
	d="
M227.319824,96.840851 
	C227.202438,96.369270 227.314224,95.722298 227.723938,95.053734 
	C227.864227,95.576576 227.706619,96.121017 227.319824,96.840851 
z"/>
</svg>